<svg width="355" height="170" viewBox="0 0 355 170" fill="none" xmlns="http://www.w3.org/2000/svg">
<g clip-path="url(#clip0)">
<path d="M172.317 42.6503H155.019C155.019 42.6503 154.108 53.1137 164.054 61.7714C173.114 69.6528 183.989 68.9823 183.989 68.9823V53.4489C178.274 53.4489 172.317 49.0612 172.317 42.6503Z" fill="#F4B500"/>
<path d="M182.288 33.4161V21.0059C182.288 21.0059 172.706 20.5236 165.315 27.7168C159.524 33.275 159.008 40.2859 159.008 40.2859C159.008 40.2859 169.737 42.1386 172.311 42.6503C172.241 37.4156 176.681 33.4161 182.288 33.4161Z" fill="#4481F6"/>
<path d="M159.014 40.2859C159.014 40.2859 158.785 41.5622 158.918 42.6503H172.317L159.014 40.2859Z" fill="#3566C5"/>
<path d="M182.288 33.4161L184.868 24.8406C184.868 24.8406 183.199 24.6407 182.288 24.7348V33.4161Z" fill="#AF362B"/>
<path d="M182.288 33.4161C182.288 33.4161 190.564 33.2573 190.947 41.4739H199.994C199.994 41.4739 200.809 28.058 184.868 24.8407C184.231 26.9757 182.288 33.4161 182.288 33.4161Z" fill="#DB4533"/>
<path d="M183.995 53.449L187.111 47.0557C187.111 47.0557 190.787 45.4441 190.953 41.4681C192.144 41.9504 195.011 43.0444 196.324 43.5796C196.037 45.6265 193.074 53.2138 183.995 53.449Z" fill="#CCCCCC"/>
<path d="M187.111 47.0557C187.111 47.0557 185.805 47.8791 183.995 47.738V53.449L187.111 47.0557ZM190.946 41.4681H196.636C196.636 41.4681 196.77 42.2328 196.317 43.5796C195.126 43.1032 190.946 41.4681 190.946 41.4681Z" fill="#B7B7B7"/>
</g>
<g clip-path="url(#clip1)">
<path fill-rule="evenodd" clip-rule="evenodd" d="M255.879 22.9231H297.121V64.0769H255.879V22.9231Z" fill="#1F0040"/>
<path fill-rule="evenodd" clip-rule="evenodd" d="M254.004 21V66H298.995V21H254.004ZM255.879 22.9231H297.121V64.0769H255.879V22.9231Z" fill="#D291FF"/>
<path fill-rule="evenodd" clip-rule="evenodd" d="M266.721 46.4808L265.237 52.2241C265.206 52.3826 265.144 52.4424 264.958 52.4424H262.205C262.02 52.4424 261.989 52.3789 262.02 52.157L267.34 33.055C267.433 32.7062 267.495 32.4308 267.525 31.4791C267.525 31.3522 267.587 31.2887 267.68 31.2887H271.608C271.732 31.2887 271.794 31.3206 271.825 31.4791L277.795 52.1885C277.825 52.3474 277.795 52.4424 277.64 52.4424H274.547C274.392 52.4424 274.299 52.3826 274.269 52.256L272.722 46.4808H266.721ZM271.982 43.3589C271.456 41.2329 270.185 36.5702 269.721 34.3174H269.691C269.288 36.5702 268.273 40.3743 267.5 43.357L271.982 43.3589ZM282.031 45.327C282.062 47.9291 283.269 49.6741 286.114 49.6741C287.228 49.6741 288.182 49.5231 289.172 49.0787C289.295 49.0153 289.388 49.0472 289.388 49.2056V51.6174C289.388 51.8078 289.326 51.9028 289.203 51.998C288.213 52.5058 286.98 52.7278 285.434 52.7278C280.485 52.7278 278.629 48.9837 278.629 44.7951C278.629 40.2577 280.918 36.5454 284.939 36.5454C289.022 36.5454 290.445 40.0674 290.445 42.9231C290.445 43.8433 290.383 44.6051 290.29 44.9539C290.259 45.1124 290.197 45.1683 290.043 45.1999C289.671 45.2633 288.558 45.3268 286.918 45.3268H282.031V45.327ZM285.836 42.6828C286.795 42.6828 287.135 42.6828 287.228 42.6512C287.228 42.5243 287.259 42.4153 287.259 42.3203C287.259 41.2731 286.764 39.3512 284.815 39.3512C283.021 39.3512 282.248 40.9693 282.062 42.6828H285.836Z" fill="#D291FF"/>
</g>
<g clip-path="url(#clip2)">
<path d="M186.498 105.312H200.009L181.952 140.375C181.952 140.375 178.91 131.086 177.603 127.771" fill="url(#paint0_linear)"/>
<path d="M189.831 148.667H200.008V105.312C200 127.969 190.942 148.667 189.831 148.667Z" fill="url(#paint1_linear)"/>
<path d="M181.952 140.376H173.552L155 105.312C158.29 104.871 164.861 104.278 168.117 104L181.952 140.376Z" fill="url(#paint2_linear)"/>
<path d="M165.759 126.531C162.973 138.103 154.991 149.009 155 149C164.246 149 166.237 147.589 166.237 146.844C166.237 146.431 166.237 133.521 166.237 127.412C166.075 127.124 165.921 126.828 165.759 126.531Z" fill="url(#paint3_linear)"/>
<path d="M155 105.312V149C160.059 140.214 163.007 134.464 165.613 126.271C159.187 114.322 155 105.312 155 105.312Z" fill="url(#paint4_linear)"/>
<path d="M189.13 146.952L189.831 148.668V125.903L189.13 127.133" fill="url(#paint5_linear)"/>
<path d="M189.797 125.947V148.596L189.823 148.667C190.549 148.667 200 124.16 200 105.312C200 105.312 194.232 117.961 189.797 125.947Z" fill="url(#paint6_linear)"/>
</g>
<g clip-path="url(#clip3)">
<path d="M57.875 105.927H99.1251V147.073H57.875V105.927Z" fill="url(#paint7_radial)"/>
<path d="M57.875 105.927H99.1251V147.073H57.875V105.927ZM56 148.995H101V104.005H56V148.995ZM85.475 120.04C85.475 119.886 85.5313 119.809 85.7001 119.809H88.6438C88.7937 119.809 88.8688 119.867 88.8688 120.04V135.21C88.8688 135.363 88.8313 135.44 88.6438 135.44H85.7376C85.5501 135.44 85.4938 135.344 85.4938 135.191V120.04H85.475ZM85.2688 115.675C85.2688 114.445 86.1125 113.714 87.1813 113.714C88.3251 113.714 89.0938 114.502 89.0938 115.675C89.0938 116.944 88.2876 117.636 87.1439 117.636C86.0563 117.636 85.2688 116.944 85.2688 115.675ZM76.8313 126.365C76.3064 124.231 75.0689 119.578 74.6 117.329H74.5625C74.1688 119.578 73.1751 123.385 72.3876 126.365H76.8313ZM71.6188 129.48L70.1375 135.248C70.1 135.402 70.0438 135.44 69.8563 135.44H67.1C66.9126 135.44 66.875 135.383 66.9126 135.152L72.2375 116.04C72.3313 115.694 72.3875 115.387 72.425 114.445C72.425 114.31 72.4813 114.252 72.575 114.252H76.5125C76.6437 114.252 76.7 114.291 76.7375 114.445L82.7 135.19C82.7375 135.344 82.7 135.44 82.55 135.44H79.4375C79.2875 135.44 79.1937 135.402 79.1563 135.267L77.6188 129.48H71.6188Z" fill="#FF7F18"/>
</g>
<g clip-path="url(#clip4)">
<path d="M56.0032 21H100.997V66H56.0032V21Z" fill="url(#paint8_linear)"/>
<path d="M59.5815 24.5785H97.419V62.4215H59.5815V24.5785Z" fill="url(#paint9_linear)"/>
<path d="M66.8764 33.6831C66.8764 33.6831 69.7212 33.6069 72.063 33.6069C74.4293 33.6069 76.1166 34.1732 77.2494 35.1682C78.3321 36.1085 79.0622 37.7114 79.0622 39.5361C79.0622 41.3608 78.5082 42.8539 77.5009 43.9037C76.1918 45.2584 74.6662 46.0603 72.063 46.1712C71.3438 46.2019 70.6782 46.2092 70.6782 46.2092V52.1407H66.8762L66.8764 33.6831ZM70.6781 42.923C71.0911 42.9639 71.35 42.9442 71.9622 42.9367C74.0016 42.9119 75.2601 41.6505 75.2601 39.7429C75.2601 38.0293 74.2224 36.6222 72.2645 36.5493C71.4842 36.5203 70.6781 36.5493 70.6781 36.5493V42.923Z" fill="url(#paint10_linear)"/>
<path d="M80.5131 48.0084C81.2794 48.4866 83.0875 49.2028 84.3201 49.2028C85.5793 49.2028 86.0993 48.7515 86.0993 48.0478C86.0993 47.3432 85.6886 46.6031 84.1278 46.0679C81.3623 45.1101 80.2943 43.9636 80.3221 42.3589C80.3221 39.767 82.4575 37.8236 85.7705 37.8236C87.3312 37.8236 88.578 38.3426 89.3987 38.7648V41.8754C88.7957 41.5371 87.0573 40.7817 85.9076 40.7817C84.8939 40.7817 84.3193 41.2043 84.3193 41.9078C84.3193 42.5558 84.8399 42.8938 86.4826 43.4857C89.0285 44.3869 90.0965 45.7104 90.1235 47.7384C90.1235 50.3019 88.1807 52.3403 84.3193 52.2166C82.9941 52.1742 81.5259 51.6414 80.5128 51.0788L80.5131 48.0084Z" fill="url(#paint11_linear)"/>
</g>
<path d="M276.5 105.069C288.327 105.069 297.931 114.694 297.931 126.5C297.931 138.306 288.306 147.931 276.5 147.931C264.694 147.931 255.069 138.327 255.069 126.5C255.069 114.673 264.694 105.069 276.5 105.069ZM276.5 104C264.074 104 254 114.074 254 126.5C254 138.926 264.074 149 276.5 149C288.926 149 299 138.926 299 126.5C299 114.074 288.948 104 276.5 104Z" fill="black"/>
<path d="M274.939 113.026C274.939 113.026 269.87 114.459 265.314 119.292C260.758 124.126 260.181 127.569 260.181 130.136C261.186 128.425 267.389 118.993 268.843 123.484V134.221C268.843 134.221 268.757 135.675 266.533 135.098C267.196 136.338 270.618 139.397 276.799 140.017C278.211 138.606 280.05 136.574 280.05 136.574L283.13 139.183C283.13 139.183 288.67 135.59 290.851 130.371C288.819 131.697 286.36 134.777 285.076 132.617V119.549C285.076 119.549 288.37 114.608 288.884 114.373C287.579 114.608 282.98 116.127 280.564 119.25C279.879 118.501 277.976 118.48 277.976 118.48C277.976 118.48 279.473 119.72 279.494 120.854C279.516 121.987 279.494 131.441 279.494 132.531C278.468 133.579 277.377 134.136 276.671 134.136C275.024 134.136 274.554 133.558 274.104 132.981V119.25C274.104 119.25 273.292 119.934 272.65 118.822C272.008 117.71 271.987 115.55 274.939 113.026Z" fill="black"/>
<defs>
<linearGradient id="paint0_linear" x1="176.969" y1="124.329" x2="202.64" y2="119.583" gradientUnits="userSpaceOnUse">
<stop stop-color="#0F6067"/>
<stop offset="0.5" stop-color="#05ABAC"/>
<stop offset="1" stop-color="#58BEC4"/>
</linearGradient>
<linearGradient id="paint1_linear" x1="194.876" y1="149.134" x2="198.915" y2="105.216" gradientUnits="userSpaceOnUse">
<stop stop-color="#117C83"/>
<stop offset="0.5" stop-color="#21B5B5"/>
<stop offset="1" stop-color="#7ED4D4"/>
</linearGradient>
<linearGradient id="paint2_linear" x1="173.711" y1="105.91" x2="163.15" y2="136.825" gradientUnits="userSpaceOnUse">
<stop stop-color="#9ACCD3"/>
<stop offset="0.5" stop-color="#72AEB3"/>
<stop offset="1" stop-color="#317D7F"/>
</linearGradient>
<linearGradient id="paint3_linear" x1="152.699" y1="141.556" x2="169.044" y2="136.504" gradientUnits="userSpaceOnUse">
<stop stop-color="#21626E"/>
<stop offset="0.5" stop-color="#157C84"/>
<stop offset="1" stop-color="#03A3A5"/>
</linearGradient>
<linearGradient id="paint4_linear" x1="165.363" y1="116.999" x2="143.677" y2="136.234" gradientUnits="userSpaceOnUse">
<stop stop-color="#0B7C81"/>
<stop offset="0.5" stop-color="#068D90"/>
<stop offset="1" stop-color="#16B1B1"/>
</linearGradient>
<linearGradient id="paint5_linear" x1="184.531" y1="141.793" x2="195.539" y2="133.314" gradientUnits="userSpaceOnUse">
<stop stop-color="#0A8A8F"/>
<stop offset="0.5" stop-color="#0F7C82"/>
<stop offset="1" stop-color="#1A5964"/>
</linearGradient>
<linearGradient id="paint6_linear" x1="200.57" y1="130.708" x2="188.998" y2="123.83" gradientUnits="userSpaceOnUse">
<stop stop-color="#256A77"/>
<stop offset="0.5" stop-color="#0D9499"/>
<stop offset="1" stop-color="#06A0A2"/>
</linearGradient>
<radialGradient id="paint7_radial" cx="0" cy="0" r="1" gradientUnits="userSpaceOnUse" gradientTransform="translate(71.4608 115.148) scale(31.3501 31.1244)">
<stop stop-color="#423325" stop-opacity="0.98"/>
<stop offset="1" stop-color="#1C0A00"/>
</radialGradient>
<linearGradient id="paint8_linear" x1="66.9374" y1="18.6499" x2="84.6678" y2="55.4856" gradientUnits="userSpaceOnUse">
<stop stop-color="#A0CBFF"/>
<stop offset="0.394" stop-color="#A0CBFE"/>
<stop offset="0.583" stop-color="#8EC2FC"/>
<stop offset="0.784" stop-color="#83BCFB"/>
<stop offset="1" stop-color="#7FBAFB"/>
</linearGradient>
<linearGradient id="paint9_linear" x1="73.0596" y1="25.1118" x2="83.1155" y2="57.9672" gradientUnits="userSpaceOnUse">
<stop stop-color="#090058"/>
<stop offset="1" stop-color="#070033"/>
</linearGradient>
<linearGradient id="paint10_linear" x1="61.5729" y1="20.6224" x2="79.3031" y2="57.4576" gradientUnits="userSpaceOnUse">
<stop stop-color="#A0CBFF"/>
<stop offset="0.394" stop-color="#A0CBFE"/>
<stop offset="0.583" stop-color="#8EC2FC"/>
<stop offset="0.784" stop-color="#83BCFB"/>
<stop offset="1" stop-color="#7FBAFB"/>
</linearGradient>
<linearGradient id="paint11_linear" x1="71.3972" y1="15.7823" x2="89.1978" y2="52.7634" gradientUnits="userSpaceOnUse">
<stop stop-color="#A0CBFF"/>
<stop offset="0.394" stop-color="#A0CBFE"/>
<stop offset="0.583" stop-color="#8EC2FC"/>
<stop offset="0.784" stop-color="#83BCFB"/>
<stop offset="1" stop-color="#7FBAFB"/>
</linearGradient>
<clipPath id="clip0">
<rect width="45" height="48" fill="white" transform="translate(155 21)"/>
</clipPath>
<clipPath id="clip1">
<rect width="45" height="45" fill="white" transform="translate(254 21)"/>
</clipPath>
<clipPath id="clip2">
<rect width="45" height="45" fill="white" transform="translate(155 104)"/>
</clipPath>
<clipPath id="clip3">
<rect width="45" height="45" fill="white" transform="translate(56 104)"/>
</clipPath>
<clipPath id="clip4">
<rect width="45" height="45" fill="white" transform="translate(56 21)"/>
</clipPath>
</defs>
</svg>
