<svg width="355" height="170" viewBox="0 0 355 170" fill="none" xmlns="http://www.w3.org/2000/svg">
<g clip-path="url(#clip0)">
<path d="M155 21.002H200V65.9995H155V21.002Z" fill="#EB43A3"/>
<path d="M158.428 24.6138H196.482V62.3864H158.428V24.6138Z" fill="#412534"/>
<path opacity="0.302" d="M187.465 32.8525L185.661 41.1853L172.315 33.8709L171.142 42.4815L168.888 52.9438L181.964 62.3877H196.483V39.6113L187.465 32.8525ZM158.428 24.6123H196.482V25.9083H158.428V24.6123Z" fill="black"/>
<path d="M172.361 33.8708V52.9348H168.973V33.8708H172.361ZM187.376 32.8525V49.0599C187.376 50.474 187.431 52.0014 187.486 52.935H184.456L184.318 50.7571H184.263C183.464 52.2845 181.839 53.2462 179.883 53.2462C176.687 53.2462 174.152 50.4461 174.152 46.2034C174.125 41.5929 176.935 38.8493 180.158 38.8493C182.004 38.8493 183.326 39.6413 183.933 40.6596H183.988V32.8525H187.376ZM183.987 44.9021C183.987 44.6191 183.96 44.2797 183.905 43.9969C183.602 42.6392 182.527 41.5362 180.984 41.5362C178.808 41.5362 177.596 43.516 177.596 46.0901C177.596 48.6073 178.808 50.4459 180.957 50.4459C182.334 50.4459 183.547 49.4842 183.877 47.9851C183.96 47.6741 183.987 47.3347 183.987 46.9669L183.987 44.9021Z" fill="#EB43A3"/>
</g>
<g clip-path="url(#clip1)">
<path d="M71.0013 67.0002C75.4164 67.0002 78.9997 63.6401 78.9997 59.5001V52H71.0013C66.5862 52 63.0029 55.36 63.0029 59.5001C63.0029 63.6401 66.5862 67.0002 71.0013 67.0002Z" fill="black"/>
<path d="M63.0029 44.5C63.0029 40.36 66.5862 37 71.0013 37H78.9997V52H71.0013C66.5862 52 63.0029 48.64 63.0029 44.5Z" fill="black"/>
<path d="M63.0029 29.5C63.0029 25.36 66.5862 22 71.0013 22H78.9997V37H71.0013C66.5862 37 63.0029 33.64 63.0029 29.5Z" fill="black"/>
<path d="M79 22H86.9984C91.4136 22 94.9968 25.36 94.9968 29.5C94.9968 33.64 91.4136 37 86.9984 37H79V22Z" fill="black"/>
<path d="M94.9968 44.5C94.9968 48.64 91.4136 52 86.9984 52C82.5833 52 79 48.64 79 44.5C79 40.36 82.5833 37 86.9984 37C91.4136 37 94.9968 40.36 94.9968 44.5Z" fill="black"/>
</g>
<path d="M294.921 21H258.079C255.826 21 254 22.8264 254 25.0794V61.9206C254 64.1736 255.826 66 258.079 66H294.921C297.174 66 299 64.1736 299 61.9206V25.0794C299 22.8264 297.174 21 294.921 21Z" fill="#DC395F"/>
<path d="M269.039 35.1583C270.535 35.1583 271.788 33.9858 271.788 32.4491C271.788 30.9135 270.535 29.7412 269.039 29.7412C267.543 29.7412 266.29 30.9135 266.29 32.4491C266.29 33.9856 267.543 35.1583 269.039 35.1583ZM263.339 49.6638C263.178 50.3511 263.097 51.0933 263.097 51.6987C263.097 54.0842 264.39 55.6678 267.139 55.6678C269.419 55.6678 271.267 54.314 272.598 52.1278L271.786 55.389H276.313L278.9 45.011C279.547 42.3835 280.8 41.0196 282.701 41.0196C284.196 41.0196 285.126 41.9498 285.126 43.4854C285.126 43.9303 285.086 44.415 284.924 44.9407L283.59 49.7109C283.388 50.3982 283.307 51.0859 283.307 51.7323C283.307 53.9969 284.641 55.6532 287.43 55.6532C289.815 55.6532 291.715 54.1178 292.766 50.4388L290.988 49.7522C290.098 52.2169 289.33 52.6625 288.724 52.6625C288.117 52.6625 287.794 52.2585 287.794 51.4505C287.794 51.0866 287.875 50.6828 287.996 50.1966L289.29 45.5493C289.613 44.458 289.735 43.4904 289.735 42.6013C289.735 39.1246 287.632 37.3102 285.086 37.3102C282.701 37.3102 280.275 39.4616 279.062 41.7259L279.951 37.6618H273.039L272.069 41.2414H275.303L273.311 49.2149C271.747 52.6915 268.874 52.7479 268.514 52.6672C267.922 52.5336 267.543 52.3088 267.543 51.5396C267.543 51.0957 267.624 50.4582 267.826 49.6895L270.859 37.6618H263.178L262.207 41.2414H265.401L263.339 49.6638" fill="white"/>
<defs>
<clipPath id="clip0">
<rect width="45" height="45" fill="white" transform="translate(155 21)"/>
</clipPath>
<clipPath id="clip1">
<rect width="32" height="45" fill="white" transform="translate(63 22)"/>
</clipPath>
</defs>
</svg>
