<svg width="45" height="45" viewBox="0 0 45 45" fill="none" xmlns="http://www.w3.org/2000/svg">
<path d="M0 3.30058C0 1.52844 1.48957 0.0899963 3.32578 0.0899963H41.6742C43.5111 0.0899963 45 1.52844 45 3.30058V41.6999C45 43.4726 43.5111 44.91 41.6742 44.91H3.32578C1.48975 44.91 0 43.4728 0 41.7005V3.30058Z" fill="white"/>
<path d="M13.6752 37.5984V17.4203H6.94135V37.5984H13.6759H13.6752ZM10.3097 14.6658C12.6574 14.6658 14.119 13.1164 14.119 11.18C14.0751 9.19953 12.6574 7.69333 10.3543 7.69333C8.04965 7.69333 6.54443 9.19953 6.54443 11.1798C6.54443 13.1162 8.00553 14.6656 10.2655 14.6656H10.3091L10.3097 14.6658ZM17.4024 37.5984H24.1357V26.3313C24.1357 25.729 24.1797 25.1252 24.3576 24.695C24.8441 23.4896 25.9521 22.2418 27.8127 22.2418C30.2487 22.2418 31.2238 24.092 31.2238 26.8049V37.5984H37.9569V26.0289C37.9569 19.8313 34.6353 16.9473 30.2051 16.9473C26.5729 16.9473 24.9777 18.9692 24.0914 20.3464H24.1363V17.421H17.4028C17.4907 19.314 17.4023 37.5991 17.4023 37.5991L17.4024 37.5984Z" fill="#212121"/>
</svg>
