<svg width="45" height="45" viewBox="0 0 45 45" fill="none" xmlns="http://www.w3.org/2000/svg">
<path d="M22.413 0C10.0362 0 0 10.315 0 23.0397C0 33.2194 6.42199 41.8556 15.3274 44.9021C16.4475 45.1153 16.8588 44.4023 16.8588 43.7937C16.8588 43.2444 16.8379 41.4293 16.8284 39.5042C10.5929 40.8979 9.27721 36.7858 9.27721 36.7858C8.25768 34.1227 6.78867 33.4147 6.78867 33.4147C4.75523 31.9847 6.94195 32.0139 6.94195 32.0139C9.19266 32.1766 10.3778 34.3883 10.3778 34.3883C12.3768 37.9106 15.621 36.8922 16.9 36.3037C17.1011 34.8144 17.682 33.7981 18.3229 33.2228C13.3448 32.6401 8.11143 30.6645 8.11143 21.8364C8.11143 19.3211 8.98699 17.2657 10.4208 15.6523C10.1881 15.0719 9.421 12.7286 10.6379 9.55503C10.6379 9.55503 12.52 8.93579 16.8031 11.9167C18.5908 11.4061 20.5082 11.1502 22.413 11.1415C24.3178 11.1502 26.2366 11.4061 28.0278 11.9167C32.3058 8.93579 34.1852 9.55503 34.1852 9.55503C35.4052 12.7286 34.6377 15.0719 34.405 15.6523C35.842 17.2657 36.7116 19.3209 36.7116 21.8364C36.7116 30.6855 31.4684 32.6341 26.4776 33.2044C27.2814 33.9194 27.9977 35.3216 27.9977 37.471C27.9977 40.5536 27.9717 43.0348 27.9717 43.7937C27.9717 44.4068 28.3751 45.1253 29.5114 44.899C38.4119 41.8491 44.8258 33.2159 44.8258 23.0397C44.8258 10.315 34.791 0 22.413 0Z" fill="white"/>
<path d="M8.39424 32.8206C8.34503 32.9349 8.1696 32.9693 8.01016 32.8909C7.84757 32.8157 7.75616 32.6596 7.8089 32.5446C7.85724 32.4268 8.03266 32.3939 8.19491 32.4731C8.35786 32.5481 8.45067 32.7056 8.39424 32.8206ZM9.49674 33.8317C9.38986 33.9336 9.18086 33.8863 9.039 33.7253C8.8924 33.5647 8.86498 33.35 8.97344 33.2465C9.08365 33.1447 9.28633 33.1923 9.43328 33.3531C9.57988 33.5155 9.60836 33.7289 9.49656 33.8319L9.49674 33.8317ZM10.2531 35.1255C10.1157 35.2236 9.89101 35.1317 9.75232 34.9268C9.61504 34.722 9.61504 34.4763 9.75531 34.3778C9.89453 34.2793 10.1157 34.3679 10.2563 34.5711C10.3934 34.7795 10.3934 35.0252 10.2529 35.1257L10.2531 35.1255ZM11.5321 36.624C11.4092 36.7632 11.1477 36.7259 10.9561 36.5359C10.7602 36.3501 10.7056 36.0865 10.8288 35.9471C10.9531 35.8076 11.2162 35.8469 11.4092 36.0353C11.6038 36.2207 11.6632 36.4863 11.5323 36.624H11.5321ZM13.1851 37.13C13.1312 37.3103 12.8791 37.3924 12.6253 37.3157C12.3718 37.2368 12.2059 37.0254 12.257 36.843C12.3097 36.6614 12.5629 36.576 12.8186 36.658C13.0718 36.7366 13.238 36.9464 13.1853 37.13H13.1851ZM15.0667 37.3445C15.073 37.5346 14.8577 37.6921 14.5912 37.6956C14.3231 37.7015 14.1064 37.5478 14.1036 37.3609C14.1036 37.169 14.314 37.0129 14.5819 37.0084C14.8484 37.003 15.0667 37.1556 15.0667 37.3445ZM16.9148 37.2717C16.9468 37.457 16.7616 37.6475 16.497 37.6981C16.2368 37.7469 15.996 37.6325 15.9628 37.4487C15.9305 37.2586 16.1193 37.0684 16.3789 37.019C16.644 36.9717 16.8811 37.0832 16.9148 37.2717Z" fill="white"/>
</svg>
