<svg width="355" height="229" viewBox="0 0 355 229" fill="none" xmlns="http://www.w3.org/2000/svg">
<path d="M56 104H101V149H56V104Z" fill="#F7DF1E"/>
<path d="M67.8322 141.605L71.2758 139.521C71.9402 140.699 72.5446 141.696 73.9942 141.696C75.3838 141.696 76.26 141.152 76.26 139.038V124.659H80.4888V139.098C80.4888 143.478 77.9213 145.471 74.1754 145.471C70.7925 145.471 68.8289 143.719 67.832 141.605L67.8322 141.605ZM82.7857 141.152L86.2289 139.159C87.1354 140.639 88.3135 141.726 90.3976 141.726C92.15 141.726 93.2672 140.85 93.2672 139.642C93.2672 138.192 92.1194 137.678 90.1861 136.833L89.1292 136.379C86.0781 135.081 84.0544 133.45 84.0544 130.006C84.0544 126.834 86.4708 124.418 90.2468 124.418C92.9352 124.418 94.8684 125.354 96.2578 127.801L92.9651 129.916C92.24 128.617 91.4549 128.103 90.2466 128.103C89.008 128.103 88.2227 128.889 88.2227 129.916C88.2227 131.184 89.008 131.698 90.8204 132.483L91.8775 132.936C95.4722 134.477 97.496 136.048 97.496 139.582C97.496 143.388 94.5056 145.472 90.4881 145.472C86.5613 145.472 84.0239 143.599 82.7856 141.152" fill="black"/>
<path d="M196.015 130.27C194.528 130.279 193.24 130.667 192.16 131.243C191.761 130.387 191.362 129.64 191.296 129.082C191.221 128.434 191.13 128.037 191.221 127.263C191.312 126.489 191.728 125.39 191.728 125.3C191.719 125.219 191.636 124.823 190.781 124.814C189.925 124.805 189.185 124.994 189.102 125.237C189.019 125.48 188.853 126.038 188.745 126.615C188.596 127.461 187.034 130.459 186.145 132.035C185.854 131.423 185.605 130.883 185.555 130.45C185.48 129.802 185.389 129.406 185.48 128.632C185.571 127.857 185.987 126.759 185.987 126.669C185.979 126.588 185.895 126.191 185.04 126.182C184.184 126.173 183.445 126.363 183.362 126.606C183.279 126.849 183.187 127.425 183.004 127.983C182.83 128.542 180.753 133.548 180.213 134.853C179.939 135.52 179.698 136.051 179.523 136.411C179.349 136.771 179.515 136.438 179.498 136.474C179.349 136.78 179.266 136.951 179.266 136.951V136.961C179.149 137.186 179.025 137.402 178.967 137.402C178.925 137.402 178.842 136.798 178.983 135.97C179.291 134.232 180.038 131.522 180.03 131.423C180.03 131.378 180.171 130.901 179.548 130.658C178.942 130.414 178.726 130.82 178.676 130.82C178.626 130.82 178.584 130.964 178.584 130.964C178.584 130.964 179.257 127.911 177.297 127.911C176.067 127.911 174.372 129.361 173.533 130.685C173.001 131 171.871 131.666 170.675 132.378C170.218 132.648 169.745 132.936 169.296 133.197L169.205 133.089C166.829 130.342 162.434 128.397 162.616 124.706C162.683 123.364 163.115 119.825 171.057 115.539C177.563 112.028 182.772 112.991 183.677 115.134C184.965 118.196 180.894 123.886 174.131 124.706C171.556 125.021 170.202 123.94 169.861 123.535C169.504 123.112 169.454 123.094 169.321 123.175C169.105 123.301 169.238 123.679 169.321 123.904C169.52 124.472 170.351 125.48 171.764 125.984C173.001 126.426 176.026 126.669 179.681 125.138C183.777 123.418 186.976 118.646 186.037 114.657C185.081 110.596 178.867 109.264 172.993 111.524C169.495 112.874 165.707 114.981 162.982 117.745C159.742 121.023 159.227 123.886 159.443 125.075C160.199 129.316 165.591 132.08 167.751 134.124C167.643 134.187 167.543 134.25 167.452 134.304C166.372 134.88 162.259 137.213 161.229 139.68C160.066 142.471 161.412 144.479 162.309 144.749C165.084 145.587 167.925 144.083 169.462 141.607C170.991 139.13 170.808 135.916 170.102 134.448L170.077 134.394L170.924 133.854C171.473 133.503 172.013 133.179 172.486 132.899C172.22 133.683 172.029 134.61 171.93 135.961C171.813 137.546 172.412 139.599 173.201 140.409C173.55 140.76 173.965 140.769 174.223 140.769C175.137 140.769 175.552 139.95 176.009 138.968C176.574 137.771 177.072 136.384 177.072 136.384C177.072 136.384 176.449 140.139 178.152 140.139C178.776 140.139 179.399 139.265 179.681 138.815V138.824C179.681 138.824 179.698 138.797 179.731 138.734C179.766 138.678 179.799 138.621 179.831 138.563V138.545C180.08 138.077 180.636 137.005 181.467 135.232C182.539 132.945 183.569 130.081 183.569 130.081C183.569 130.081 183.669 130.784 183.976 131.936C184.159 132.621 184.558 133.368 184.865 134.097C184.616 134.475 184.466 134.691 184.466 134.691L184.475 134.701C184.275 134.989 184.051 135.295 183.818 135.601C182.971 136.699 181.957 137.951 181.825 138.311C181.667 138.734 181.7 139.05 182.007 139.302C182.232 139.482 182.63 139.518 183.054 139.482C183.818 139.428 184.35 139.221 184.616 139.095C185.031 138.932 185.505 138.689 185.962 138.329C186.793 137.663 187.3 136.718 187.25 135.457C187.225 134.764 187.017 134.079 186.76 133.431C186.834 133.314 186.909 133.197 186.984 133.071C188.296 130.991 189.31 128.704 189.31 128.704C189.31 128.704 189.41 129.406 189.717 130.559C189.875 131.144 190.191 131.783 190.473 132.414C189.244 133.503 188.471 134.764 188.205 135.592C187.715 137.123 188.097 137.816 188.82 137.978C189.144 138.05 189.609 137.888 189.958 137.726C190.39 137.573 190.913 137.312 191.395 136.925C192.226 136.258 193.024 135.331 192.982 134.079C192.957 133.503 192.816 132.936 192.625 132.396C193.672 131.927 195.026 131.657 196.746 131.882C200.443 132.351 201.174 134.854 201.033 135.898C200.892 136.943 200.119 137.519 199.861 137.699C199.604 137.87 199.521 137.933 199.546 138.059C199.579 138.248 199.695 138.239 199.919 138.203C200.227 138.149 201.863 137.348 201.93 135.421C202.03 132.945 199.861 130.243 196.015 130.27V130.27ZM167.502 140.688C166.28 142.138 164.56 142.687 163.829 142.219C163.04 141.724 163.347 139.59 164.851 138.05C165.765 137.114 166.953 136.249 167.734 135.718C167.909 135.601 168.174 135.43 168.49 135.223C168.54 135.187 168.573 135.169 168.573 135.169C168.631 135.133 168.698 135.088 168.764 135.043C169.321 137.24 168.789 139.167 167.502 140.688V140.688ZM176.433 134.106C176.009 135.232 175.112 138.122 174.572 137.96C174.106 137.825 173.824 135.637 174.48 133.476C174.812 132.386 175.519 131.09 175.934 130.585C176.607 129.775 177.338 129.505 177.521 129.838C177.737 130.27 176.698 133.404 176.433 134.106ZM183.802 137.924C183.619 138.023 183.453 138.095 183.378 138.041C183.32 138.005 183.453 137.87 183.453 137.87C183.453 137.87 184.375 136.798 184.741 136.303C184.948 136.015 185.198 135.682 185.463 135.304V135.412C185.463 136.708 184.317 137.573 183.802 137.924ZM189.484 136.519C189.352 136.411 189.368 136.078 189.817 135.034C189.991 134.619 190.39 133.926 191.08 133.269C191.163 133.539 191.213 133.8 191.204 134.043C191.196 135.664 190.133 136.267 189.484 136.519Z" fill="#CF649A"/>
<path d="M276.413 104C264.036 104 254 114.315 254 127.04C254 137.219 260.422 145.856 269.327 148.902C270.447 149.115 270.859 148.402 270.859 147.794C270.859 147.244 270.838 145.429 270.828 143.504C264.593 144.898 263.277 140.786 263.277 140.786C262.258 138.123 260.789 137.415 260.789 137.415C258.755 135.985 260.942 136.014 260.942 136.014C263.193 136.177 264.378 138.388 264.378 138.388C266.377 141.911 269.621 140.892 270.9 140.304C271.101 138.814 271.682 137.798 272.323 137.223C267.345 136.64 262.111 134.665 262.111 125.836C262.111 123.321 262.987 121.266 264.421 119.652C264.188 119.072 263.421 116.729 264.638 113.555C264.638 113.555 266.52 112.936 270.803 115.917C272.591 115.406 274.508 115.15 276.413 115.142C278.318 115.15 280.237 115.406 282.028 115.917C286.306 112.936 288.185 113.555 288.185 113.555C289.405 116.729 288.638 119.072 288.405 119.652C289.842 121.266 290.712 123.321 290.712 125.836C290.712 134.685 285.468 136.634 280.478 137.204C281.281 137.919 281.998 139.322 281.998 141.471C281.998 144.554 281.972 147.035 281.972 147.794C281.972 148.407 282.375 149.125 283.511 148.899C292.412 145.849 298.826 137.216 298.826 127.04C298.826 114.315 288.791 104 276.413 104Z" fill="#161614"/>
<path d="M262.394 136.821C262.345 136.935 262.17 136.969 262.01 136.891C261.848 136.816 261.756 136.659 261.809 136.545C261.857 136.427 262.033 136.394 262.195 136.473C262.358 136.548 262.451 136.706 262.394 136.821V136.821ZM263.497 137.832C263.39 137.934 263.181 137.886 263.039 137.725C262.893 137.565 262.865 137.35 262.974 137.246C263.084 137.145 263.287 137.192 263.434 137.353C263.58 137.515 263.609 137.729 263.497 137.832L263.497 137.832ZM264.253 139.125C264.116 139.224 263.891 139.132 263.753 138.927C263.615 138.722 263.615 138.476 263.756 138.378C263.895 138.279 264.116 138.368 264.257 138.571C264.394 138.779 264.394 139.025 264.253 139.126L264.253 139.125ZM265.532 140.624C265.409 140.763 265.148 140.726 264.956 140.536C264.761 140.35 264.706 140.086 264.829 139.947C264.953 139.808 265.216 139.847 265.409 140.035C265.604 140.221 265.663 140.486 265.533 140.624H265.532ZM267.185 141.13C267.131 141.31 266.879 141.392 266.626 141.316C266.372 141.237 266.206 141.025 266.257 140.843C266.31 140.661 266.563 140.576 266.819 140.658C267.072 140.737 267.238 140.946 267.186 141.13H267.185ZM269.067 141.344C269.073 141.535 268.858 141.692 268.591 141.696C268.323 141.701 268.107 141.548 268.104 141.361C268.104 141.169 268.314 141.013 268.582 141.008C268.849 141.003 269.067 141.156 269.067 141.344V141.344ZM270.915 141.272C270.947 141.457 270.762 141.647 270.497 141.698C270.237 141.747 269.996 141.632 269.963 141.449C269.931 141.259 270.12 141.068 270.379 141.019C270.644 140.972 270.881 141.083 270.915 141.272" fill="#161614"/>
<g clip-path="url(#clip0)">
<path d="M78.5009 67C66.0319 67 55.9069 57.0622 56.0009 44.5C56.0949 31.9378 65.5634 22 78.5009 22C91.4393 22 101.001 32.125 101.001 44.5C101.001 56.875 90.9699 67 78.5009 67ZM85.1568 63.531L78.7821 46.3747L72.7819 63.9063C77.1887 64.9381 80.1884 65.2185 85.1568 63.531ZM69.5949 62.594L60.0324 36.4378C58.7194 39.2503 58.439 41.5943 58.2509 44.5C58.3449 52.1869 62.6569 59.2182 69.5949 62.594V62.594ZM98.6577 44.5C98.7509 39.5315 96.5018 35.594 96.3137 35.0315C96.5018 38.8759 95.9384 40.8437 95.2827 43.0006L88.7199 61.8443C96.9702 56.875 98.5628 49.4685 98.7509 44.5H98.6577ZM77.8452 43.6563L74.6574 34.9375L72.3134 34.7503C71.3765 34.0937 71.9381 33.0628 72.5946 33.0628C76.8134 33.344 79.1566 33.344 83.3762 33.0628C84.408 33.0628 84.6884 34.5631 83.4693 34.7503L81.2193 34.9375L88.531 56.4997L91.9991 44.6872C92.1872 39.5315 90.7801 38.969 88.9054 35.2188C87.4051 32.3122 88.9994 29.4997 91.906 29.4065C89.561 27.1565 84.7807 24.344 78.4991 24.25C72.2176 24.156 65.5616 27.3437 61.6241 33.344L68.5622 33.1568C69.406 33.5321 69.0307 34.7503 68.5622 34.8443L66.125 35.0315L73.4375 56.969L77.8452 43.6563V43.6563Z" fill="#21759B"/>
</g>
<g clip-path="url(#clip1)">
<path d="M298.878 44.8595C298.878 41.8777 295.155 39.0518 289.447 37.2994C290.764 31.4642 290.179 26.8218 287.599 25.3355C287.005 24.9868 286.309 24.8217 285.55 24.8217V26.8677C285.971 26.8677 286.309 26.9502 286.593 27.1062C287.837 27.8218 288.377 30.5468 287.956 34.0515C287.855 34.914 287.691 35.8223 287.489 36.7489C285.697 36.3085 283.739 35.9691 281.681 35.7489C280.446 34.0515 279.165 32.5102 277.875 31.1615C280.857 28.3815 283.657 26.8585 285.559 26.8585V24.8125C283.044 24.8125 279.751 26.6108 276.421 29.7302C273.091 26.6291 269.798 24.8492 267.282 24.8492V26.8952C269.176 26.8952 271.984 28.409 274.966 31.1706C273.686 32.5193 272.405 34.0515 271.188 35.7489C269.121 35.9691 267.163 36.3085 265.371 36.7581C265.16 35.8406 265.005 34.9507 264.895 34.0974C264.465 30.5926 264.995 27.8677 266.23 27.1429C266.505 26.9778 266.862 26.9044 267.282 26.9044V24.8584C266.514 24.8584 265.819 25.0235 265.215 25.3722C262.645 26.8585 262.068 31.4918 263.395 37.3086C257.705 39.0702 254 41.8868 254 44.8595C254 47.8413 257.723 50.6671 263.431 52.4195C262.114 58.2547 262.699 62.8971 265.279 64.3835C265.874 64.7321 266.569 64.8973 267.337 64.8973C269.853 64.8973 273.146 63.099 276.476 59.9796C279.805 63.0806 283.099 64.8606 285.614 64.8606C286.383 64.8606 287.078 64.6954 287.682 64.3468C290.252 62.8604 290.828 58.2272 289.502 52.4103C295.173 50.6579 298.878 47.8321 298.878 44.8595V44.8595ZM286.968 38.7399C286.63 39.9234 286.209 41.1437 285.733 42.3639C285.358 41.6299 284.965 40.8959 284.535 40.162C284.114 39.428 283.666 38.7123 283.218 38.0151C284.517 38.2077 285.77 38.4463 286.968 38.7399ZM282.778 48.511C282.065 49.7496 281.333 50.924 280.574 52.0158C279.211 52.1351 277.83 52.1993 276.439 52.1993C275.058 52.1993 273.677 52.1351 272.323 52.025C271.563 50.9332 270.822 49.768 270.109 48.5386C269.414 47.3367 268.783 46.1164 268.206 44.887C268.773 43.6576 269.414 42.4281 270.1 41.2262C270.813 39.9876 271.545 38.8133 272.304 37.7215C273.667 37.6022 275.049 37.538 276.439 37.538C277.82 37.538 279.202 37.6022 280.556 37.7123C281.315 38.8041 282.056 39.9693 282.769 41.1987C283.465 42.4006 284.096 43.6209 284.672 44.8503C284.096 46.0797 283.465 47.3091 282.778 48.511ZM285.733 47.3183C286.227 48.5477 286.648 49.7772 286.996 50.9699C285.797 51.2635 284.535 51.5112 283.227 51.7039C283.675 50.9974 284.123 50.2726 284.544 49.5294C284.965 48.7955 285.358 48.0523 285.733 47.3183ZM276.457 57.1078C275.607 56.2271 274.756 55.2454 273.914 54.1719C274.738 54.2086 275.579 54.2361 276.43 54.2361C277.29 54.2361 278.141 54.2178 278.973 54.1719C278.15 55.2454 277.299 56.2271 276.457 57.1078ZM269.652 51.7039C268.353 51.5112 267.099 51.2727 265.901 50.9791C266.24 49.7955 266.66 48.5753 267.136 47.355C267.511 48.089 267.904 48.823 268.334 49.557C268.764 50.291 269.203 51.0066 269.652 51.7039ZM276.412 32.6111C277.262 33.4919 278.113 34.4736 278.955 35.547C278.131 35.5103 277.29 35.4828 276.439 35.4828C275.579 35.4828 274.729 35.5012 273.896 35.547C274.719 34.4736 275.57 33.4919 276.412 32.6111ZM269.642 38.0151C269.194 38.7215 268.746 39.4463 268.325 40.1895C267.904 40.9235 267.511 41.6575 267.136 42.3914C266.642 41.162 266.221 39.9326 265.874 38.7399C267.072 38.4554 268.334 38.2077 269.642 38.0151V38.0151ZM261.364 49.5019C258.126 48.1165 256.031 46.2999 256.031 44.8595C256.031 43.419 258.126 41.5932 261.364 40.217C262.151 39.8775 263.01 39.5748 263.898 39.2904C264.419 41.0886 265.105 42.9603 265.956 44.8778C265.114 46.7862 264.437 48.6487 263.925 50.4377C263.02 50.1533 262.16 49.8414 261.364 49.5019ZM266.285 62.6127C265.041 61.8971 264.501 59.1722 264.922 55.6674C265.023 54.805 265.188 53.8967 265.389 52.97C267.182 53.4104 269.139 53.7499 271.198 53.9701C272.432 55.6674 273.713 57.2088 275.003 58.5575C272.021 61.3374 269.222 62.8604 267.319 62.8604C266.907 62.8513 266.56 62.7687 266.285 62.6127V62.6127ZM287.983 55.6215C288.413 59.1263 287.883 61.8512 286.648 62.576C286.373 62.7412 286.017 62.8146 285.596 62.8146C283.702 62.8146 280.894 61.3007 277.912 58.5391C279.193 57.1904 280.473 55.6582 281.69 53.9609C283.757 53.7407 285.715 53.4012 287.508 52.9516C287.718 53.8783 287.883 54.7683 287.983 55.6215V55.6215ZM291.505 49.5019C290.719 49.8414 289.859 50.1442 288.971 50.4286C288.45 48.6303 287.764 46.7586 286.913 44.8411C287.755 42.9328 288.432 41.0703 288.944 39.2812C289.85 39.5656 290.709 39.8775 291.514 40.217C294.753 41.6024 296.848 43.419 296.848 44.8595C296.838 46.2999 294.744 48.1257 291.505 49.5019V49.5019Z" fill="#61DAFB"/>
<path d="M276.43 49.0523C278.739 49.0523 280.61 47.1751 280.61 44.8594C280.61 42.5437 278.739 40.6665 276.43 40.6665C274.121 40.6665 272.25 42.5437 272.25 44.8594C272.25 47.1751 274.121 49.0523 276.43 49.0523Z" fill="#61DAFB"/>
</g>
<path d="M197.918 20.7617L193.833 64.0349L175.471 68.8485L157.159 64.0415L153.078 20.7617H197.918Z" fill="#E44D26"/>
<path d="M175.498 65.1689L190.336 61.2792L193.827 24.3003H175.498V65.1689Z" fill="#F16529"/>
<path d="M167.557 34.9167H175.498V29.6086H161.422L161.556 31.0327L162.936 45.6604H175.498V40.3523H168.07L167.557 34.9167V34.9167ZM168.822 48.3145H163.187L163.973 56.649L175.472 59.6673L175.498 59.6607V54.138L175.473 54.1442L169.222 52.5479L168.822 48.3145V48.3145Z" fill="#EBEBEB"/>
<path d="M157.25 9H160.103V11.6651H162.712V9H165.565V17.0706H162.712V14.3681H160.103V17.0706H157.25V9H157.25ZM169.316 11.6764H166.805V9H174.682V11.6764H172.17V17.0706H169.317V11.6764H169.317H169.316ZM175.932 9H178.907L180.736 11.8358L182.564 9H185.54V17.0706H182.699V13.0704L180.736 15.9399H180.687L178.723 13.0704V17.0706H175.932V9ZM186.96 9H189.813V14.403H193.825V17.0706H186.96V9H186.96Z" fill="black"/>
<path d="M175.479 45.6604H182.391L181.74 52.5446L175.479 54.1425V59.6648L186.987 56.649L187.071 55.7522L188.39 41.7777L188.527 40.3523H175.479V45.6604ZM175.479 34.9038V34.9167H189.038L189.151 33.7237L189.407 31.0327L189.541 29.6086H175.479V34.9039V34.9038Z" fill="white"/>
<defs>
<clipPath id="clip0">
<rect width="45" height="45" fill="white" transform="translate(56 22)"/>
</clipPath>
<clipPath id="clip1">
<rect width="45" height="45" fill="white" transform="translate(254 22)"/>
</clipPath>
</defs>
</svg>
